<svg width="10" height="12" viewBox="0 0 10 12" fill="none" xmlns="http://www.w3.org/2000/svg">
<path fill-rule="evenodd" clip-rule="evenodd" d="M4.99999 1.93504e-05C5.59144 -0.00167692 6.17749 0.108165 6.72427 0.323218C7.27104 0.538271 7.76783 0.8543 8.18605 1.25311C8.60427 1.65193 8.93566 2.12565 9.16118 2.64705C9.38669 3.16845 9.50176 3.72722 9.49998 4.29123C9.49998 6.93791 6.67065 10.0728 4.9865 12C3.12721 9.76446 0.5 7.34904 0.5 4.29123C0.5 3.15313 0.974121 2.06164 1.81804 1.25688C2.66196 0.452119 3.80651 1.93504e-05 4.99999 1.93504e-05ZM4.99999 2.45398C4.48186 2.45398 3.985 2.65026 3.61863 2.99963C3.25226 3.349 3.04645 3.82285 3.04645 4.31693C3.05 4.80879 3.25741 5.27934 3.6234 5.62594C3.98939 5.97254 4.48419 6.16705 4.99999 6.16704C5.51346 6.16367 6.00495 5.96766 6.36803 5.62143C6.73111 5.27519 6.93668 4.80657 6.94021 4.31693C6.93324 3.83173 6.72801 3.36826 6.36819 3.02514C6.00837 2.68202 5.52229 2.48631 5.01348 2.47966L4.99999 2.45398Z" fill="white"/>
</svg>
