<svg width="22" height="22" viewBox="0 0 22 22" fill="none" xmlns="http://www.w3.org/2000/svg">
<path fill-rule="evenodd" clip-rule="evenodd" d="M9.5 15.3333C12.7217 15.3333 15.3333 12.7217 15.3333 9.5C15.3333 6.27834 12.7217 3.66667 9.5 3.66667C6.27834 3.66667 3.66667 6.27834 3.66667 9.5C3.66667 12.7217 6.27834 15.3333 9.5 15.3333ZM9.5 17C13.6421 17 17 13.6421 17 9.5C17 5.35786 13.6421 2 9.5 2C5.35786 2 2 5.35786 2 9.5C2 13.6421 5.35786 17 9.5 17Z" fill="#838688"/>
<path d="M13.3604 14.4469L14.5547 13.2289L19.9998 18.7821L18.8055 20.0001L13.3604 14.4469Z" fill="#838688"/>
</svg>
